<?xml version="1.0" encoding="UTF-8"?>
<svg xmlns="http://www.w3.org/2000/svg" xmlns:xlink="http://www.w3.org/1999/xlink" viewBox="0 0 800 800">
  <defs>
    <style>
      .m {
        fill: #3b2314;
      }

      .n {
        clip-path: url(#k);
      }

      .o {
        fill: #404041;
        stroke: #424143;
      }

      .o, .p, .q, .r, .s, .t, .u, .v {
        stroke-miterlimit: 10;
      }

      .o, .t {
        stroke-width: .25px;
      }

      .w {
        fill: #fff;
      }

      .p {
        fill: #80a558;
      }

      .p, .q, .r, .s, .t, .u, .v {
        stroke: #231f20;
      }

      .x {
        fill: none;
      }

      .y {
        fill: #754c28;
      }

      .z {
        fill: #8a5d3b;
      }

      .aa {
        clip-path: url(#h);
      }

      .q {
        fill: #a2cf6e;
      }

      .r {
        fill: #6a8747;
      }

      .ab {
        fill: #603813;
      }

      .ac {
        clip-path: url(#g);
      }

      .ad {
        fill: #58595b;
      }

      .s {
        fill: #324023;
      }

      .t {
        fill: url(#l);
      }

      .u {
        fill: #495c31;
      }

      .v {
        fill: #58713b;
      }
    </style>
    <clipPath id="g">
      <rect class="x" x="-1000" y=".11" width="800" height="799.78"/>
    </clipPath>
    <clipPath id="h">
      <polygon class="x" points="-33.42 511.32 -1015.45 804.95 -1167.14 288.15 -185.11 -5.48 -33.42 511.32"/>
    </clipPath>
    <clipPath id="k">
      <ellipse class="x" cx="400" cy="400.37" rx="400" ry="400.37"/>
    </clipPath>
    <linearGradient id="l" x1="0" y1="400" x2="800" y2="400" gradientUnits="userSpaceOnUse">
      <stop offset="0" stop-color="#006e3b"/>
      <stop offset="1" stop-color="#014023"/>
    </linearGradient>
  </defs>
  <g id="f" data-name="Layer 6">
    <g class="ac">
      <g class="aa">
        <g>
          <path class="s" d="M262.22,352.71l460.4,77.95,23.07-141.4-29.15-20.97c-8.51-2.61-23.95-12.61-32.16-16.03l-58.3-13.07-63.19-16.47c-1.62.28-68.3-31.72-69.94-31.61l-224.87,15.09s-39.57,3.39-68.64,2.6-82.37,9.52-100.02,16.65c-28.69,11.6-64.02-8.46-157.42,9.12-125.28,35.29-230.32,6.97-229.88,5.89l-4.35,265.38,554.44-153.14Z"/>
          <path class="u" d="M752.37,363.34l28.68-65.49c.51-1.16.36-2.51-.4-3.53l-38.76-52.14c-.47-.63.14,24.85-.62,24.64l.19,78.5c-.35-.1-43.36,7.69-43.72,7.7l-42.21-11.31c-8.49.32-104.22-11.68-112.64-10.52l-160.25-14.35c-4.44.61-131.98-28.97-136.44-29.4-30.37-2.89-85.75-29.72-156.84.25-80.97,34.13-156.06,16.37-156.06,16.37l-67.3-9.26c-54.66-6.67-110.32-31.73-113.06-32.97-.07-.03-.13-.06-.2-.1-2.38-1.28-49.62-26.64-71.88-36.43-11.95-5.26-17.84-9.21-20.74-11.79-2.78-2.47-6.41-4.28-10.47-5.25-30.66-7.35-67.4-22.09-72.1-23.99-.34-.14-.69-.21-1.05-.23-12.96-.67-28.7-9.09-32.95-11.5-.79-.45-1.69-.55-2.57-.35-15.19,3.57-65.54,29.7-71.34,32.73-.38.2-.73.3-1.15.36-11,1.34-44.18,8.67-62.69,12.86-6.74,1.52-13.7,2.35-20.71,2.63-23,.94-73.37,12.65-85.6,15.56-1.59.38-2.71,1.8-2.71,3.44v268.91c0,1.94,1.57,3.52,3.51,3.53l947.79,6.32c.36,0,.71-.05,1.06-.15l511.12,100.73c.99-.3-8.31-254.83-7.89-255.78Z"/>
          <path class="v" d="M267.83,476.18l406.5,167.06,153.02-85.68-104.03-69.35c-35.31-1.34-97.24-36.18-189.21-58.8l-119.1-40.45c-15.24,2.82-106.62-26.73-122.12-26.63-54.27.32-165.95-37.23-243.5-13.82-97.58,29.46-196.2,3.05-260.19,0-63.99-3.05-122.18-26.97-122.18-26.97-117.65-73.49-288.59-84.53-288.59-84.53,0,0-26.3,8.4-60.21,2.58-33.91-5.82-60.21,0-60.21,0-133.57,26.96-259.57,36.71-259.57,36.71v162.16l1269.37,37.73Z"/>
          <path class="r" d="M-1301.19,353.16l-169.36-.44,9.34,452.9,2453.95-128.47-90.51-33.91-90.71-57.04-186.95-74.38-161.32-31.41c-7.67,1.88-31.78,7.78-73.84,8.53-5.61.1-11.24-.18-16.81-.83l-100.01-11.56c-3.17-.25-6.3-.72-9.4-1.43-36.5-8.38-77.65-18.74-116.3-24.49-27.38-3.97-58.48-5.85-86.77-5.98-20.07-.05-36.87.36-57.42-.12-47.98-1-89.82-2.37-132.83-6.79-25.16-3.05-73.97-7.85-87.42-20.9-30.5-11.93-96.72-33.93-182.46-32.55-16.69.53-34.97,2.57-50.7,5.07-18.04,2.81-35.17,6.33-53.14,7.75-39.57,3.03-80.99.83-117.93-9.13-10.6-2.91-13.11-4.04-25.38-8.66-42.03-15.25-117.45-45.08-162.91-56.17-17.85-3.27-36.55-6.85-54.55-12.11-20.28-5.54-39.68-12.33-59.02-17.88-27.94-8-67.22-16.97-98.94-18.04-11.75-.47-23.36.27-34.67,2.39-64.99,13.88-147.69,42.98-205.59,62.03-9.7,3.29-18.12,6.18-24.77,8.46-6.22,2.12-10.98,3.79-13.6,5.14-.64.33-1.14.64-1.48.92"/>
          <path class="p" d="M-1011.06,385.18c28.87-9.54,58.63-23.67,88.82-25.36,18.06-.09,37.13.49,55.31-1.64,7.62-.81,14.91-1.91,22.18-3.29,8.52-1.59,12.72-2.56,20.08-2.04,25.67,2.13,48.62,10.83,71.56,20.99,31.16,13.87,66.34,30.2,98.23,44.33,17.79,7.96,32.37,14.74,51.75,21.5,36.21,12.76,88.96,34.04,128.18,45.1,180.52,50.42,391.04,124.2,492.69,123.06,18.3-.67,36.96-3.16,56.51-3.63,74.32-2.87,310.61-57.21,398.05-44.4,5.29.78,132.8,33.16,138,34.42l139.71,38.7,129.36,162.07-2249.86-15.56-21.45-412.72,327.95,39.1,52.94-20.64Z"/>
          <path class="q" d="M267.83,694.74c-175.67,30.13-337.47,7.53-337.47,7.53,0,0-607.62-84.85-828.73-143.53-172.84-45.87-321.88-63.64-378.72-69.21-15.85-1.55-31.84.51-46.8,5.99l-175.53,64.28,30.45,269.62,539.11,72.96,1423.35-144.78,311.38-26.06-38.28-60.41-80.91-31.16c-3.59-.2-63.38-25.42-66.86-24.51l-138.22,26.05c-.89.23-87.5,8.33-88.4,8.51l-124.37,44.72Z"/>
        </g>
      </g>
    </g>
  </g>
  <g id="j" data-name="Layer 9">
    <g class="n">
      <rect class="t" x="0" y="-.58" width="800" height="801.17"/>
      <g>
        <polygon class="ab" points="392.07 2064.91 340.54 2065.62 375.16 179.33 424.14 179.33 392.07 2064.91"/>
        <polygon class="z" points="334.53 538.47 404.21 492.68 408.7 266.56 360.38 301.39 334.53 538.47"/>
        <polygon class="y" points="408.7 266.56 437.19 300.01 446.22 536.09 404.21 492.68 408.7 266.56"/>
        <polygon class="m" points="347.42 530 344.95 568.51 447.39 566.85 446.22 536.09 404.21 491.72 347.42 530"/>
        <path class="ad" d="M319.56,664.47s33.98-36.08,40.15-98.97c.88-8.95,8.47-15.74,17.44-15.89l35.88-.59c9.86-.16,18.07,7.76,18.13,17.65.46,78.86,33.41,97.79,33.41,97.79"/>
        <ellipse class="o" cx="392.06" cy="664.47" rx="72.51" ry="27.67"/>
        <polygon class="z" points="308.96 140.72 337.72 127.6 210.98 2061.57 185.31 2061.57 308.96 140.72"/>
        <polygon class="y" points="210.98 2061.57 249.38 2060.5 372.76 134.52 337.72 127.6 210.98 2061.57"/>
        <polygon class="z" points="431.12 141.2 464.4 127.6 464.44 128.6 546.65 2068.9 504.81 2068.9 431.12 141.2"/>
        <polyline class="y" points="464.4 127.6 495.07 138.34 572.98 2068.43 546.65 2068.9 462.4 128.42"/>
        <polygon class="w" points="624.23 267.18 605.08 255.47 669.27 176.71 639.66 158.62 566.13 276.04 576.45 282.34 517.69 374.51 624.23 267.18"/>
        <polygon class="w" points="178.14 257.09 197.29 245.38 133.1 166.63 162.71 148.53 236.24 265.95 225.93 272.25 284.68 364.42 178.14 257.09"/>
        <polygon class="w" points="624.23 535.48 605.08 547.18 669.27 625.94 639.66 644.04 566.13 526.61 576.45 520.31 517.69 428.14 624.23 535.48"/>
        <polygon class="w" points="178.14 529.5 197.29 541.21 133.1 619.97 162.71 638.06 236.24 520.64 225.93 514.34 284.68 422.17 178.14 529.5"/>
      </g>
    </g>
  </g>
</svg>