<?xml version="1.0" encoding="UTF-8"?>
<svg xmlns="http://www.w3.org/2000/svg" xmlns:xlink="http://www.w3.org/1999/xlink" viewBox="0 0 800 800">
  <defs>
    <style>
      .l {
        fill: #3b2314;
      }

      .m {
        fill: ivory;
      }

      .n {
        clip-path: url(#k);
      }

      .o {
        fill: #404041;
        stroke: #424143;
        stroke-width: .25px;
      }

      .o, .p {
        stroke-miterlimit: 10;
      }

      .q {
        fill: none;
      }

      .r {
        fill: #754c28;
      }

      .s {
        fill: #8a5d3b;
      }

      .t {
        clip-path: url(#h);
      }

      .p {
        fill: #6a8747;
        stroke: #231f20;
      }

      .u {
        fill: #603813;
      }

      .v {
        clip-path: url(#g);
      }

      .w {
        fill: #58595b;
      }
    </style>
    <clipPath id="g">
      <rect class="q" x="-1988.96" y=".11" width="800" height="799.78"/>
    </clipPath>
    <clipPath id="h">
      <polygon class="q" points="-1022.38 511.32 -2004.41 804.95 -2156.1 288.15 -1174.07 -5.48 -1022.38 511.32"/>
    </clipPath>
    <clipPath id="k">
      <rect class="q" x=".66" width="799.34" height="800"/>
    </clipPath>
  </defs>
  <g id="f" data-name="Layer 6">
    <g class="v">
      <g class="t">
        <path class="p" d="M-2290.15,353.16l-169.36-.44,9.34,452.9L3.78,677.14l-90.51-33.91-90.71-57.04-186.95-74.38-161.32-31.41c-7.67,1.88-31.78,7.78-73.84,8.53-5.61.1-11.24-.18-16.81-.83l-100.01-11.56c-3.17-.25-6.3-.72-9.4-1.43-36.5-8.38-77.65-18.74-116.3-24.49-27.38-3.97-58.48-5.85-86.77-5.98-20.07-.05-36.87.36-57.42-.12-47.98-1-89.82-2.37-132.83-6.79-25.16-3.05-73.97-7.85-87.42-20.9-30.5-11.93-96.72-33.93-182.46-32.55-16.69.53-34.97,2.57-50.7,5.07-18.04,2.81-35.17,6.33-53.14,7.75-39.57,3.03-80.99.83-117.93-9.13-10.6-2.91-13.11-4.04-25.38-8.66-42.03-15.25-117.45-45.08-162.91-56.17-17.85-3.27-36.55-6.85-54.55-12.11-20.28-5.54-39.68-12.33-59.02-17.88-27.94-8-67.22-16.97-98.94-18.04-11.75-.47-23.36.27-34.67,2.39-64.99,13.88-147.69,42.98-205.59,62.03-9.7,3.29-18.12,6.18-24.77,8.46-6.22,2.12-10.98,3.79-13.6,5.14-.64.33-1.14.64-1.48.92"/>
      </g>
    </g>
  </g>
  <g id="j" data-name="Layer 9">
    <g class="n">
      <path class="m" d="M521.43,2221.25c-6.45,0-11.75-5.1-11.99-11.54l-58.04-1518.26c-5.23,1.65-10.91,3.06-16.96,4.19l-25.67,1509.39c-.11,6.48-5.35,11.71-11.83,11.79,0,0-57.08.79-57.14.79-3.19,0-6.25-1.27-8.5-3.53-2.29-2.3-3.55-5.44-3.49-8.69l27.72-1510.48c-2.73-.58-5.39-1.22-7.96-1.91l-96.59,1507.7c-.4,6.19-5.44,11.05-11.64,11.23l-42.45,1.19c-.11,0-.22,0-.33,0h-28.39c-3.32,0-6.49-1.37-8.75-3.79-2.27-2.42-3.43-5.67-3.22-8.98L292.9,76.55c.28-4.41,2.97-8.31,7-10.15l31.8-14.5c1.57-.72,3.27-1.08,4.98-1.08.78,0,1.55.08,2.32.23l38.74,7.65c5.91,1.17,10.04,6.53,9.65,12.54l-2.36,36.78h44.06l-1.14-29.7c-.19-5.04,2.79-9.66,7.45-11.57l36.8-15.03c1.45-.59,2.99-.89,4.54-.89,1.34,0,2.68.22,3.96.67l33.91,11.87c4.65,1.63,7.83,5.92,8.03,10.84l86.15,2134.04c.13,3.23-1.04,6.37-3.26,8.72-2.21,2.35-5.28,3.71-8.51,3.76,0,0-29.26.53-29.33.53h-46.26Z"/>
      <g>
        <polygon class="u" points="396.77 2208.38 339.8 2209.17 378.08 123.56 432.23 123.56 396.77 2208.38"/>
        <polygon class="s" points="333.15 520.65 410.19 470.02 415.16 220.01 361.73 258.51 333.15 520.65"/>
        <polygon class="r" points="415.16 220.01 446.66 256.99 456.64 518.02 410.19 470.02 415.16 220.01"/>
        <polygon class="l" points="347.4 511.28 344.68 553.86 457.94 552.03 456.64 518.02 410.19 468.96 347.4 511.28"/>
        <path class="w" d="M316.59,659.96s37.57-39.89,44.39-109.42c.97-9.9,9.37-17.4,19.28-17.56l39.67-.65c10.9-.18,19.98,8.58,20.04,19.52.51,87.2,36.94,108.12,36.94,108.12"/>
        <ellipse class="o" cx="396.76" cy="659.96" rx="80.17" ry="30.59"/>
        <polygon class="s" points="304.87 80.87 336.68 66.36 196.55 2204.69 168.16 2204.69 304.87 80.87"/>
        <polygon class="r" points="196.55 2204.69 239 2203.5 375.42 74.01 336.68 66.36 196.55 2204.69"/>
        <polygon class="s" points="439.95 81.4 476.75 66.36 476.79 67.46 567.69 2212.8 521.43 2212.8 439.95 81.4"/>
        <polyline class="r" points="476.75 66.36 510.65 78.23 596.8 2212.27 567.69 2212.8 474.53 67.27"/>
      </g>
      <g>
        <polygon class="m" points="707.2 201.62 676.66 182.96 779.01 57.39 731.8 28.53 614.57 215.75 631.01 225.8 537.34 372.75 707.2 201.62"/>
        <polygon class="m" points="93.47 201.62 124 182.96 21.65 57.39 68.86 28.53 186.09 215.75 169.65 225.8 263.33 372.75 93.47 201.62"/>
        <polygon class="m" points="707.2 599.12 676.66 617.78 779.01 743.35 731.8 772.2 614.57 584.98 631.01 574.94 537.34 427.99 707.2 599.12"/>
        <polygon class="m" points="93.47 599.12 124 617.78 21.65 743.35 68.86 772.2 186.09 584.98 169.65 574.94 263.33 427.99 93.47 599.12"/>
      </g>
    </g>
  </g>
</svg>