<?xml version="1.0" encoding="UTF-8"?>
<svg id="h" data-name="Layer 9" xmlns="http://www.w3.org/2000/svg" xmlns:xlink="http://www.w3.org/1999/xlink" viewBox="0 0 800 800">
  <defs>
    <style>
      .k {
        fill: ivory;
        stroke: #231f20;
        stroke-width: 10px;
      }

      .k, .l {
        stroke-miterlimit: 10;
      }

      .m {
        fill: #3b2314;
      }

      .n {
        clip-path: url(#i);
      }

      .l {
        fill: #404041;
        stroke: #424143;
        stroke-width: .25px;
      }

      .o {
        fill: #231f20;
      }

      .p {
        clip-path: url(#j);
      }

      .q {
        fill: none;
      }

      .r {
        fill: #754c28;
      }

      .s {
        fill: #8a5d3b;
      }

      .t {
        fill: #603813;
      }

      .u {
        fill: #58595b;
      }
    </style>
    <clipPath id="i">
      <rect class="q" x=".66" width="799.34" height="800"/>
    </clipPath>
    <clipPath id="j">
      <rect class="q" x="-952.59" width="799.34" height="800"/>
    </clipPath>
  </defs>
  <g class="n">
    <path class="o" d="M507.46,2096c-8.06,0-14.68-6.37-14.99-14.43l-54.25-1419.02c-2.78.76-5.66,1.45-8.65,2.07l-24.02,1412.49c-.14,8.1-6.69,14.63-14.79,14.74,0,0-53.57.74-53.64.74-3.99,0-7.81-1.59-10.63-4.42-2.87-2.88-4.44-6.8-4.37-10.86l25.94-1413.47c-.07-.02-.14-.03-.22-.05l-90.29,1409.44c-.5,7.74-6.8,13.82-14.55,14.04l-39.81,1.11c-.14,0-.28,0-.42,0h-26.62c-4.15,0-8.11-1.72-10.94-4.74-2.83-3.02-4.29-7.09-4.03-11.22L289.41,80.7c.35-5.52,3.71-10.39,8.74-12.68l29.83-13.6c1.96-.9,4.09-1.35,6.22-1.35.97,0,1.94.09,2.91.28l36.33,7.17c7.38,1.46,12.54,8.16,12.06,15.68l-1.95,30.43h33.42l-.91-23.89c-.24-6.3,3.48-12.08,9.32-14.46l34.51-14.1c1.82-.74,3.74-1.11,5.67-1.11,1.67,0,3.35.28,4.95.84l31.8,11.13c5.81,2.03,9.78,7.41,10.03,13.55l80.79,2001.31c.16,4.03-1.31,7.96-4.08,10.9-2.77,2.94-6.61,4.63-10.64,4.71,0,0-27.48.5-27.57.5h-43.38Z"/>
    <g>
      <polygon class="t" points="389.94 2075.42 336.51 2076.16 372.41 120.26 423.19 120.26 389.94 2075.42"/>
      <polygon class="s" points="330.28 492.66 402.52 445.17 407.19 210.71 357.08 246.82 330.28 492.66"/>
      <polygon class="r" points="407.19 210.71 436.72 245.39 446.08 490.18 402.52 445.17 407.19 210.71"/>
      <polygon class="m" points="343.64 483.87 341.08 523.8 447.3 522.08 446.08 490.18 402.52 444.18 343.64 483.87"/>
      <path class="u" d="M314.75,623.3s35.24-37.41,41.63-102.62c.91-9.28,8.79-16.32,18.08-16.47l37.21-.61c10.23-.17,18.74,8.04,18.8,18.3.48,81.77,34.65,101.39,34.65,101.39"/>
      <ellipse class="l" cx="389.93" cy="623.3" rx="75.18" ry="28.69"/>
      <polygon class="s" points="303.76 80.23 333.58 66.62 202.17 2071.95 175.55 2071.95 303.76 80.23"/>
      <polygon class="r" points="202.17 2071.95 241.98 2070.84 369.91 73.8 333.58 66.62 202.17 2071.95"/>
      <polygon class="s" points="430.43 80.72 464.94 66.62 464.98 67.65 550.23 2079.56 506.84 2079.56 430.43 80.72"/>
      <polyline class="r" points="464.94 66.62 496.74 77.75 577.53 2079.07 550.23 2079.56 462.86 67.47"/>
    </g>
    <g>
      <polygon class="k" points="718.64 201.87 689.32 183.95 787.62 63.35 742.28 35.64 629.68 215.45 645.47 225.1 555.51 366.23 718.64 201.87"/>
      <polygon class="k" points="81.36 201.87 110.68 183.95 12.38 63.35 57.72 35.64 170.32 215.45 154.53 225.1 244.49 366.23 81.36 201.87"/>
      <polygon class="k" points="718.64 622.52 689.32 640.44 787.62 761.04 742.28 788.75 629.68 608.95 645.47 599.29 555.51 458.16 718.64 622.52"/>
      <polygon class="k" points="81.36 622.52 110.68 640.44 12.38 761.04 57.72 788.75 170.32 608.95 154.53 599.29 244.49 458.16 81.36 622.52"/>
    </g>
  </g>
  <g class="p">
    <rect class="o" x="-952.59" width="977.87" height="945.93"/>
  </g>
</svg>